<mxfile host="app.diagrams.net" modified="2023-09-14T20:18:48.720Z" agent="Mozilla/5.0 (Windows NT 10.0; Win64; x64) AppleWebKit/537.36 (KHTML, like Gecko) Chrome/116.0.0.0 Safari/537.36" etag="JkMXn6rNm5xXzu_lhBsv" version="21.7.5" type="device">
  <diagram name="Page-1" id="ljb2BqZib3AoGoV-HCXX">
    <mxGraphModel dx="1434" dy="796" grid="1" gridSize="10" guides="1" tooltips="1" connect="1" arrows="1" fold="1" page="1" pageScale="1" pageWidth="850" pageHeight="1100" math="0" shadow="0">
      <root>
        <mxCell id="0" />
        <mxCell id="1" parent="0" />
        <mxCell id="iuMrsHnNyLMeJKUaG_75-1" value="" style="html=1;verticalLabelPosition=bottom;align=center;labelBackgroundColor=#ffffff;verticalAlign=top;strokeWidth=2;strokeColor=#0080F0;shadow=0;dashed=0;shape=mxgraph.ios7.icons.user;" vertex="1" parent="1">
          <mxGeometry x="140" y="370" width="30" height="30" as="geometry" />
        </mxCell>
        <mxCell id="iuMrsHnNyLMeJKUaG_75-2" value="" style="endArrow=none;html=1;rounded=0;exitX=1.167;exitY=0.5;exitDx=0;exitDy=0;exitPerimeter=0;" edge="1" parent="1" source="iuMrsHnNyLMeJKUaG_75-1" target="iuMrsHnNyLMeJKUaG_75-3">
          <mxGeometry width="50" height="50" relative="1" as="geometry">
            <mxPoint x="200" y="410" as="sourcePoint" />
            <mxPoint x="280" y="385" as="targetPoint" />
          </mxGeometry>
        </mxCell>
        <mxCell id="iuMrsHnNyLMeJKUaG_75-3" value="UI" style="rounded=0;whiteSpace=wrap;html=1;" vertex="1" parent="1">
          <mxGeometry x="210" y="355" width="120" height="60" as="geometry" />
        </mxCell>
        <mxCell id="iuMrsHnNyLMeJKUaG_75-5" value="Authentication/ Authorization" style="rounded=0;whiteSpace=wrap;html=1;" vertex="1" parent="1">
          <mxGeometry x="440" y="210" width="130" height="60" as="geometry" />
        </mxCell>
        <mxCell id="iuMrsHnNyLMeJKUaG_75-7" value="Data Ingestion" style="rounded=0;whiteSpace=wrap;html=1;" vertex="1" parent="1">
          <mxGeometry x="460" y="355" width="120" height="60" as="geometry" />
        </mxCell>
        <mxCell id="iuMrsHnNyLMeJKUaG_75-8" value="" style="endArrow=classic;html=1;rounded=0;exitX=0.508;exitY=0.9;exitDx=0;exitDy=0;exitPerimeter=0;entryX=0.375;entryY=0;entryDx=0;entryDy=0;entryPerimeter=0;endFill=1;startArrow=classic;startFill=1;" edge="1" parent="1" source="iuMrsHnNyLMeJKUaG_75-5" target="iuMrsHnNyLMeJKUaG_75-7">
          <mxGeometry width="50" height="50" relative="1" as="geometry">
            <mxPoint x="590" y="300" as="sourcePoint" />
            <mxPoint x="730" y="300" as="targetPoint" />
          </mxGeometry>
        </mxCell>
        <mxCell id="iuMrsHnNyLMeJKUaG_75-10" value="" style="endArrow=none;html=1;rounded=0;exitX=1;exitY=0.5;exitDx=0;exitDy=0;entryX=-0.01;entryY=0.639;entryDx=0;entryDy=0;entryPerimeter=0;strokeColor=none;startArrow=classic;startFill=0;" edge="1" parent="1" source="iuMrsHnNyLMeJKUaG_75-7" target="iuMrsHnNyLMeJKUaG_75-11">
          <mxGeometry width="50" height="50" relative="1" as="geometry">
            <mxPoint x="700" y="400" as="sourcePoint" />
            <mxPoint x="770" y="385" as="targetPoint" />
          </mxGeometry>
        </mxCell>
        <mxCell id="iuMrsHnNyLMeJKUaG_75-11" value="" style="rounded=0;whiteSpace=wrap;html=1;" vertex="1" parent="1">
          <mxGeometry x="920" y="270" width="290" height="180" as="geometry" />
        </mxCell>
        <mxCell id="iuMrsHnNyLMeJKUaG_75-12" value="Recommendation Models" style="rounded=0;whiteSpace=wrap;html=1;" vertex="1" parent="1">
          <mxGeometry x="840" y="610" width="140" height="80" as="geometry" />
        </mxCell>
        <mxCell id="iuMrsHnNyLMeJKUaG_75-13" value="Data Preprocessing" style="rounded=0;whiteSpace=wrap;html=1;" vertex="1" parent="1">
          <mxGeometry x="1145" y="610" width="130" height="80" as="geometry" />
        </mxCell>
        <mxCell id="iuMrsHnNyLMeJKUaG_75-14" value="" style="rounded=0;whiteSpace=wrap;html=1;fillColor=none;glass=1;dashed=1;" vertex="1" parent="1">
          <mxGeometry x="835" y="560" width="515" height="220" as="geometry" />
        </mxCell>
        <mxCell id="iuMrsHnNyLMeJKUaG_75-15" value="AI Engine" style="text;html=1;strokeColor=none;fillColor=none;align=center;verticalAlign=middle;whiteSpace=wrap;rounded=0;" vertex="1" parent="1">
          <mxGeometry x="835" y="560" width="60" height="30" as="geometry" />
        </mxCell>
        <mxCell id="iuMrsHnNyLMeJKUaG_75-16" value="" style="endArrow=classic;html=1;rounded=0;exitX=0.855;exitY=1.011;exitDx=0;exitDy=0;entryX=0.649;entryY=-0.032;entryDx=0;entryDy=0;entryPerimeter=0;exitPerimeter=0;" edge="1" parent="1" source="iuMrsHnNyLMeJKUaG_75-11" target="iuMrsHnNyLMeJKUaG_75-14">
          <mxGeometry width="50" height="50" relative="1" as="geometry">
            <mxPoint x="920" y="510" as="sourcePoint" />
            <mxPoint x="970" y="460" as="targetPoint" />
          </mxGeometry>
        </mxCell>
        <mxCell id="iuMrsHnNyLMeJKUaG_75-18" value="" style="endArrow=classic;html=1;rounded=0;exitX=0;exitY=0.5;exitDx=0;exitDy=0;entryX=1;entryY=0.5;entryDx=0;entryDy=0;" edge="1" parent="1" source="iuMrsHnNyLMeJKUaG_75-13" target="iuMrsHnNyLMeJKUaG_75-12">
          <mxGeometry width="50" height="50" relative="1" as="geometry">
            <mxPoint x="780" y="800" as="sourcePoint" />
            <mxPoint x="830" y="750" as="targetPoint" />
          </mxGeometry>
        </mxCell>
        <mxCell id="iuMrsHnNyLMeJKUaG_75-19" value="" style="rounded=0;whiteSpace=wrap;html=1;" vertex="1" parent="1">
          <mxGeometry x="385" y="520" width="270" height="120" as="geometry" />
        </mxCell>
        <mxCell id="iuMrsHnNyLMeJKUaG_75-20" value="" style="outlineConnect=0;dashed=0;verticalLabelPosition=bottom;verticalAlign=top;align=center;html=1;shape=mxgraph.aws3.postgre_sql_instance;fillColor=#2E73B8;gradientColor=none;" vertex="1" parent="1">
          <mxGeometry x="960" y="365" width="40" height="40" as="geometry" />
        </mxCell>
        <mxCell id="iuMrsHnNyLMeJKUaG_75-21" value="Database" style="text;html=1;strokeColor=none;fillColor=none;align=center;verticalAlign=middle;whiteSpace=wrap;rounded=0;" vertex="1" parent="1">
          <mxGeometry x="1020" y="300" width="60" height="30" as="geometry" />
        </mxCell>
        <mxCell id="iuMrsHnNyLMeJKUaG_75-22" value="mongoDB" style="text;html=1;strokeColor=none;fillColor=none;align=center;verticalAlign=middle;whiteSpace=wrap;rounded=0;" vertex="1" parent="1">
          <mxGeometry x="1085" y="370" width="60" height="30" as="geometry" />
        </mxCell>
        <mxCell id="iuMrsHnNyLMeJKUaG_75-23" value="Audio Analytics" style="rounded=0;whiteSpace=wrap;html=1;" vertex="1" parent="1">
          <mxGeometry x="720" y="460" width="120" height="60" as="geometry" />
        </mxCell>
        <mxCell id="iuMrsHnNyLMeJKUaG_75-24" value="" style="endArrow=none;html=1;rounded=0;exitX=1;exitY=0.5;exitDx=0;exitDy=0;" edge="1" parent="1" source="iuMrsHnNyLMeJKUaG_75-23">
          <mxGeometry width="50" height="50" relative="1" as="geometry">
            <mxPoint x="910" y="520" as="sourcePoint" />
            <mxPoint x="840" y="490" as="targetPoint" />
          </mxGeometry>
        </mxCell>
        <mxCell id="iuMrsHnNyLMeJKUaG_75-25" value="" style="endArrow=none;html=1;rounded=0;" edge="1" parent="1">
          <mxGeometry width="50" height="50" relative="1" as="geometry">
            <mxPoint x="870" y="420" as="sourcePoint" />
            <mxPoint x="870" y="490" as="targetPoint" />
          </mxGeometry>
        </mxCell>
        <mxCell id="iuMrsHnNyLMeJKUaG_75-27" value="" style="endArrow=classic;html=1;rounded=0;entryX=-0.01;entryY=0.839;entryDx=0;entryDy=0;entryPerimeter=0;" edge="1" parent="1" target="iuMrsHnNyLMeJKUaG_75-11">
          <mxGeometry width="50" height="50" relative="1" as="geometry">
            <mxPoint x="870" y="421" as="sourcePoint" />
            <mxPoint x="1030" y="480" as="targetPoint" />
          </mxGeometry>
        </mxCell>
        <mxCell id="iuMrsHnNyLMeJKUaG_75-28" value="Audio Features" style="text;html=1;strokeColor=none;fillColor=none;align=center;verticalAlign=middle;whiteSpace=wrap;rounded=0;" vertex="1" parent="1">
          <mxGeometry x="870" y="470" width="60" height="30" as="geometry" />
        </mxCell>
        <mxCell id="iuMrsHnNyLMeJKUaG_75-30" value="" style="endArrow=classic;html=1;rounded=0;exitX=0.5;exitY=1;exitDx=0;exitDy=0;entryX=0.5;entryY=0;entryDx=0;entryDy=0;" edge="1" parent="1" source="iuMrsHnNyLMeJKUaG_75-7" target="iuMrsHnNyLMeJKUaG_75-19">
          <mxGeometry width="50" height="50" relative="1" as="geometry">
            <mxPoint x="520" y="550" as="sourcePoint" />
            <mxPoint x="570" y="500" as="targetPoint" />
          </mxGeometry>
        </mxCell>
        <mxCell id="iuMrsHnNyLMeJKUaG_75-31" value="" style="endArrow=classic;html=1;rounded=0;exitX=1;exitY=0.5;exitDx=0;exitDy=0;entryX=0;entryY=0.5;entryDx=0;entryDy=0;" edge="1" parent="1" source="iuMrsHnNyLMeJKUaG_75-19" target="iuMrsHnNyLMeJKUaG_75-23">
          <mxGeometry width="50" height="50" relative="1" as="geometry">
            <mxPoint x="632.52" y="530" as="sourcePoint" />
            <mxPoint x="407.48" y="647.98" as="targetPoint" />
          </mxGeometry>
        </mxCell>
        <mxCell id="iuMrsHnNyLMeJKUaG_75-32" value="Songs" style="text;html=1;align=center;verticalAlign=middle;resizable=0;points=[];autosize=1;strokeColor=none;fillColor=none;" vertex="1" parent="1">
          <mxGeometry x="520" y="420" width="60" height="30" as="geometry" />
        </mxCell>
        <mxCell id="iuMrsHnNyLMeJKUaG_75-33" value="User generated data" style="text;html=1;align=center;verticalAlign=middle;resizable=0;points=[];autosize=1;strokeColor=none;fillColor=none;" vertex="1" parent="1">
          <mxGeometry x="690" y="355" width="130" height="30" as="geometry" />
        </mxCell>
        <mxCell id="iuMrsHnNyLMeJKUaG_75-36" value="" style="endArrow=classic;html=1;rounded=0;entryX=-0.003;entryY=0.611;entryDx=0;entryDy=0;entryPerimeter=0;" edge="1" parent="1" target="iuMrsHnNyLMeJKUaG_75-11">
          <mxGeometry width="50" height="50" relative="1" as="geometry">
            <mxPoint x="580" y="380" as="sourcePoint" />
            <mxPoint x="740" y="410" as="targetPoint" />
          </mxGeometry>
        </mxCell>
        <mxCell id="iuMrsHnNyLMeJKUaG_75-37" value="" style="endArrow=classic;html=1;rounded=0;exitX=1;exitY=0.5;exitDx=0;exitDy=0;entryX=0;entryY=0.5;entryDx=0;entryDy=0;" edge="1" parent="1" source="iuMrsHnNyLMeJKUaG_75-3" target="iuMrsHnNyLMeJKUaG_75-7">
          <mxGeometry width="50" height="50" relative="1" as="geometry">
            <mxPoint x="320" y="520" as="sourcePoint" />
            <mxPoint x="370" y="470" as="targetPoint" />
          </mxGeometry>
        </mxCell>
        <mxCell id="iuMrsHnNyLMeJKUaG_75-38" value="" style="endArrow=none;html=1;rounded=0;endFill=0;" edge="1" parent="1">
          <mxGeometry width="50" height="50" relative="1" as="geometry">
            <mxPoint x="390" y="380" as="sourcePoint" />
            <mxPoint x="390" y="250" as="targetPoint" />
          </mxGeometry>
        </mxCell>
        <mxCell id="iuMrsHnNyLMeJKUaG_75-39" value="" style="endArrow=classic;html=1;rounded=0;entryX=-0.031;entryY=0.633;entryDx=0;entryDy=0;entryPerimeter=0;" edge="1" parent="1" target="iuMrsHnNyLMeJKUaG_75-5">
          <mxGeometry width="50" height="50" relative="1" as="geometry">
            <mxPoint x="390" y="250" as="sourcePoint" />
            <mxPoint x="400" y="240" as="targetPoint" />
          </mxGeometry>
        </mxCell>
        <mxCell id="iuMrsHnNyLMeJKUaG_75-40" value="" style="sketch=0;points=[[0,0,0],[0.25,0,0],[0.5,0,0],[0.75,0,0],[1,0,0],[0,1,0],[0.25,1,0],[0.5,1,0],[0.75,1,0],[1,1,0],[0,0.25,0],[0,0.5,0],[0,0.75,0],[1,0.25,0],[1,0.5,0],[1,0.75,0]];outlineConnect=0;fontColor=#232F3E;fillColor=#7AA116;strokeColor=#ffffff;dashed=0;verticalLabelPosition=bottom;verticalAlign=top;align=center;html=1;fontSize=12;fontStyle=0;aspect=fixed;shape=mxgraph.aws4.resourceIcon;resIcon=mxgraph.aws4.s3;" vertex="1" parent="1">
          <mxGeometry x="500" y="600" width="30" height="30" as="geometry" />
        </mxCell>
        <mxCell id="iuMrsHnNyLMeJKUaG_75-41" value="Text" style="text;html=1;strokeColor=none;fillColor=none;align=center;verticalAlign=middle;whiteSpace=wrap;rounded=0;" vertex="1" parent="1">
          <mxGeometry x="520" y="280" width="60" height="30" as="geometry" />
        </mxCell>
        <mxCell id="iuMrsHnNyLMeJKUaG_75-42" value="CDN&lt;br style=&quot;border-color: var(--border-color);&quot;&gt;(Hadoop HDFS, Amazon S3)" style="text;html=1;strokeColor=none;fillColor=none;align=center;verticalAlign=middle;whiteSpace=wrap;rounded=0;" vertex="1" parent="1">
          <mxGeometry x="447.5" y="560" width="115" height="30" as="geometry" />
        </mxCell>
        <mxCell id="iuMrsHnNyLMeJKUaG_75-45" value="" style="endArrow=none;html=1;rounded=0;exitX=1;exitY=0.5;exitDx=0;exitDy=0;" edge="1" parent="1" source="iuMrsHnNyLMeJKUaG_75-23">
          <mxGeometry width="50" height="50" relative="1" as="geometry">
            <mxPoint x="830" y="610" as="sourcePoint" />
            <mxPoint x="870" y="490" as="targetPoint" />
          </mxGeometry>
        </mxCell>
        <mxCell id="iuMrsHnNyLMeJKUaG_75-46" value="" style="endArrow=none;html=1;rounded=0;exitX=0.174;exitY=-0.008;exitDx=0;exitDy=0;exitPerimeter=0;" edge="1" parent="1" source="iuMrsHnNyLMeJKUaG_75-19">
          <mxGeometry width="50" height="50" relative="1" as="geometry">
            <mxPoint x="520" y="530" as="sourcePoint" />
            <mxPoint x="432" y="400" as="targetPoint" />
          </mxGeometry>
        </mxCell>
        <mxCell id="iuMrsHnNyLMeJKUaG_75-47" value="" style="endArrow=none;html=1;rounded=0;exitX=1;exitY=0.75;exitDx=0;exitDy=0;endFill=0;startArrow=classic;startFill=1;" edge="1" parent="1" source="iuMrsHnNyLMeJKUaG_75-3">
          <mxGeometry width="50" height="50" relative="1" as="geometry">
            <mxPoint x="520" y="530" as="sourcePoint" />
            <mxPoint x="430" y="400" as="targetPoint" />
          </mxGeometry>
        </mxCell>
        <mxCell id="iuMrsHnNyLMeJKUaG_75-48" value="Streaming" style="text;html=1;strokeColor=none;fillColor=none;align=center;verticalAlign=middle;whiteSpace=wrap;rounded=0;" vertex="1" parent="1">
          <mxGeometry x="370" y="450" width="60" height="30" as="geometry" />
        </mxCell>
        <mxCell id="iuMrsHnNyLMeJKUaG_75-49" value="" style="rounded=0;whiteSpace=wrap;html=1;fillColor=none;dashed=1;dashPattern=12 12;" vertex="1" parent="1">
          <mxGeometry x="360" y="330" width="340" height="400" as="geometry" />
        </mxCell>
        <mxCell id="iuMrsHnNyLMeJKUaG_75-51" value="Load Balancing/ Cache" style="text;html=1;strokeColor=none;fillColor=none;align=center;verticalAlign=middle;whiteSpace=wrap;rounded=0;" vertex="1" parent="1">
          <mxGeometry x="610" y="690" width="60" height="30" as="geometry" />
        </mxCell>
        <mxCell id="iuMrsHnNyLMeJKUaG_75-52" value="" style="endArrow=none;html=1;rounded=0;entryX=-0.012;entryY=0.495;entryDx=0;entryDy=0;entryPerimeter=0;" edge="1" parent="1" target="iuMrsHnNyLMeJKUaG_75-14">
          <mxGeometry width="50" height="50" relative="1" as="geometry">
            <mxPoint x="240" y="670" as="sourcePoint" />
            <mxPoint x="730" y="690" as="targetPoint" />
          </mxGeometry>
        </mxCell>
        <mxCell id="iuMrsHnNyLMeJKUaG_75-53" value="" style="endArrow=classic;html=1;rounded=0;entryX=0.25;entryY=1;entryDx=0;entryDy=0;endFill=1;" edge="1" parent="1" target="iuMrsHnNyLMeJKUaG_75-3">
          <mxGeometry width="50" height="50" relative="1" as="geometry">
            <mxPoint x="240" y="670" as="sourcePoint" />
            <mxPoint x="280" y="690" as="targetPoint" />
          </mxGeometry>
        </mxCell>
        <mxCell id="iuMrsHnNyLMeJKUaG_75-54" value="Results" style="text;html=1;strokeColor=none;fillColor=none;align=center;verticalAlign=middle;whiteSpace=wrap;rounded=0;" vertex="1" parent="1">
          <mxGeometry x="750" y="670" width="60" height="30" as="geometry" />
        </mxCell>
      </root>
    </mxGraphModel>
  </diagram>
</mxfile>
